<svg xmlns="http://www.w3.org/2000/svg" width="64" height="64" viewBox="0 0 4.233 4.233" fill="#333"><path d="M.529.529A.53.53 0 0 0 0 1.058v2.117a.53.53 0 0 0 .529.529h1.852V2.91h.266v-.018c0-.43.36-.775.789-.775a.79.79 0 0 1 .797.775v.018h.001V1.058a.53.53 0 0 0-.529-.529H.529z" opacity=".33"/><path d="M0 1.852v.529h2.844c.146-.162.359-.264.592-.264a.81.81 0 0 1 .598.264h.2v-.529H0z"/><path d="M3.435 2.381c-.29 0-.525.228-.525.512v.282h-.265v1.058h1.587V3.175h-.265v-.282c0-.283-.244-.512-.533-.512zm0 .265c.145 0 .269.104.269.247v.282h-.529v-.282c0-.143.115-.247.261-.247z" fill="#444"/></svg>
