<?xml version="1.0" encoding="UTF-8" standalone="no"?>
<svg
   width="64"
   height="64"
   viewBox="0 0 4.233 4.233"
   fill="#333"
   version="1.1"
   id="svg6"
   sodipodi:docname="readingstrip-on-symbolic.svg"
   inkscape:version="1.1.2 (0a00cf5339, 2022-02-04)"
   xmlns:inkscape="http://www.inkscape.org/namespaces/inkscape"
   xmlns:sodipodi="http://sodipodi.sourceforge.net/DTD/sodipodi-0.dtd"
   xmlns="http://www.w3.org/2000/svg"
   xmlns:svg="http://www.w3.org/2000/svg">
  <defs
     id="defs10" />
  <sodipodi:namedview
     id="namedview8"
     pagecolor="#ffffff"
     bordercolor="#666666"
     borderopacity="1.0"
     inkscape:pageshadow="2"
     inkscape:pageopacity="0.0"
     inkscape:pagecheckerboard="0"
     showgrid="false"
     inkscape:zoom="11.6875"
     inkscape:cx="50.566845"
     inkscape:cy="38.673797"
     inkscape:window-width="3440"
     inkscape:window-height="1356"
     inkscape:window-x="0"
     inkscape:window-y="0"
     inkscape:window-maximized="1"
     inkscape:current-layer="svg6" />
  <path
     id="rect2"
     style="stroke-width:15.1193;opacity:0.33"
     d="M 7.9980469 7.9980469 C 3.567094 7.9980469 0 11.565141 0 15.996094 L 0 48.003906 C 5.9211895e-16 52.434859 3.567094 56.001953 7.9980469 56.001953 L 35.994141 56.001953 L 35.994141 43.990234 L 40.011719 43.990234 L 40.011719 43.724609 C 40.011719 37.226263 45.457313 32.001953 51.941406 32.001953 C 58.421244 32.001983 63.988281 37.146126 63.988281 43.724609 L 63.988281 43.990234 L 64 43.990234 L 64 15.996094 C 64 11.565141 60.432906 7.9980469 56.001953 7.9980469 L 7.9980469 7.9980469 z "
     transform="scale(0.06614062)" />
  <path
     id="path4"
     style="stroke-width:15.1193"
     d="M 0 28 L 0 36 L 42.994141 36 C 45.197341 33.546078 48.416073 32.001953 51.941406 32.001953 C 55.48016 32.00197 58.745853 33.53562 60.982422 36 L 64 36 L 64 28 L 0 28 z "
     transform="scale(0.06614062)" />
  <path
     style="fill:#444444;stroke-width:0.264562"
     d="m 3.4353251,2.3810652 c -0.2898237,0 -0.5251363,0.2284718 -0.5251363,0.5117839 V 3.1748809 H 2.645625 V 4.233 H 4.233 V 3.1746221 H 3.9684362 V 2.8928503 c 0,-0.2833157 -0.2438238,-0.5117839 -0.5331111,-0.5117851 z m 0,0.2645638 c 0.1451759,0 0.2685518,0.1037439 0.2685518,0.2472237 V 3.1748845 H 3.1747509 V 2.8928527 c 0,-0.1434758 0.1151319,-0.2472237 0.2605742,-0.2472237 z"
     id="path2" />
</svg>
