<?xml version="1.0" encoding="utf-8"?>
<svg width="24" height="24" version="1.1" id="svg13" xmlns="http://www.w3.org/2000/svg">
  <defs id="defs3">
    <style id="current-color-scheme" type="text/css">
   .ColorScheme-Text { color:#444444; } .ColorScheme-Highlight { color:#4285f4; } .ColorScheme-NeutralText { color:#ff9800; } .ColorScheme-PositiveText { color:#4caf50; } .ColorScheme-NegativeText { color:#f44336; }
  </style>
  </defs>
  <rect style="opacity:0" width="22" height="22" x="1" y="1" id="rect5"/>
  <rect style="opacity:1;fill:#ffffff;fill-opacity:1;stroke:#737373;stroke-opacity:1" id="rect1514" width="23.979914" height="23.995737" x="0.013792133" y="0.046436071"/>
  <g id="g116" transform="translate(-0.66478844,-0.64540638)">
    <path style="fill:none;stroke:currentColor;stroke-width:2.9392;stroke-linecap:round;stroke-linejoin:round" class="ColorScheme-Text" d="m 15.531607,17.212118 c 0,1.507448 0,1.507448 1.432701,1.507448 0.514472,0 0.609326,3.29e-4 1.432717,4.7e-5 0.651238,-1.67e-4 -1.7e-5,-4.7e-5 1.432689,-4.7e-5 0,0 1.432689,0 1.4327,-1.507448 l 1.2e-5,-1.508125 c 0,-6.352963 -5.730809,0.318316 -5.713642,-6.0157766 -0.0036,-0.6339508 -0.01733,-1.1236286 -0.01733,-1.5207826 0,-1.5074472 1.432699,-1.5074472 1.432699,-1.5074472 0.360852,0 0.905049,-6.782e-4 1.432716,-6.772e-4 0.498121,0 1.061995,6.772e-4 1.43269,6.772e-4 1.432702,0 1.432702,0 1.432702,1.5074472" id="path7"/>
    <path style="fill:none;stroke:currentColor;stroke-width:2.9392;stroke-linecap:round" class="ColorScheme-Text" d="M 9.8052327,18.719309 6.9398263,14.196966 m -2.8654078,-1.507451 2.8653805,-5e-6 c 0.607231,-2e-6 1.0445091,6.84e-4 1.432717,6.84e-4 1.4326995,0 1.4326995,0 1.4326995,-1.507447 0,-0.386993 2.16e-5,-0.904127 1.72e-5,-1.5081234 l -1.72e-5,-1.5067715 c 0,-1.5074475 0,-1.5074475 -1.4326995,-1.5074475 -0.3216476,0 -0.7795507,0.014231 -1.2529257,0.010843 C 5.5070981,6.659711 4.0744185,6.6598466 4.0744185,6.6598466 M 4.0745603,18.719576 V 6.6599951" id="path9"/>
  </g>
  <rect id="rect75" width="24.24667" height="4.5" x="-0.11958589" y="9.7943048" style="opacity:0.5;fill:#fffb00;fill-opacity:1;stroke:#d1d60b;stroke-width:0.5;stroke-opacity:1;stroke-miterlimit:4;stroke-dasharray:none"/>
  <text style="font-family: &quot;DejaVu Sans Mono&quot;; font-size: 1.5px; line-height: 2.53205px; stroke-width: 0.759616px; white-space: pre;" id="text38138" x="2.88" y="21.702">stripes do it better</text>
</svg>